<mxfile host="app.diagrams.net" modified="2024-07-24T16:13:54.526Z" agent="Mozilla/5.0 (Macintosh; Intel Mac OS X 10_15_7) AppleWebKit/537.36 (KHTML, like Gecko) Chrome/126.0.0.0 Safari/537.36" etag="keo7LCsLwGGIY3Orxxn1" version="24.6.5" type="device">
  <diagram name="Page-1" id="z8GZelKPK6HZ9UrfianW">
    <mxGraphModel dx="1620" dy="1685" grid="1" gridSize="10" guides="1" tooltips="1" connect="1" arrows="1" fold="1" page="1" pageScale="1" pageWidth="850" pageHeight="1100" math="0" shadow="0">
      <root>
        <mxCell id="0" />
        <mxCell id="1" parent="0" />
        <mxCell id="oe5NFMV8teDHn_59ZeEc-1" value="" style="rounded=0;whiteSpace=wrap;html=1;strokeWidth=4;" parent="1" vertex="1">
          <mxGeometry x="100" y="220" width="500" height="200" as="geometry" />
        </mxCell>
        <mxCell id="oe5NFMV8teDHn_59ZeEc-3" value="" style="rounded=0;whiteSpace=wrap;html=1;strokeWidth=4;" parent="1" vertex="1">
          <mxGeometry x="100" y="220" width="250" height="200" as="geometry" />
        </mxCell>
        <mxCell id="oe5NFMV8teDHn_59ZeEc-4" value="&lt;font style=&quot;font-size: 18px;&quot;&gt;Decentralised Execution&lt;/font&gt;" style="text;html=1;align=center;verticalAlign=middle;whiteSpace=wrap;rounded=0;fontSize=30;fontStyle=1" parent="1" vertex="1">
          <mxGeometry x="115" y="210" width="220" height="60" as="geometry" />
        </mxCell>
        <mxCell id="oe5NFMV8teDHn_59ZeEc-5" value="" style="rounded=0;whiteSpace=wrap;html=1;strokeWidth=4;" parent="1" vertex="1">
          <mxGeometry x="350" y="220" width="250" height="200" as="geometry" />
        </mxCell>
        <mxCell id="oe5NFMV8teDHn_59ZeEc-6" value="&lt;font style=&quot;font-size: 18px;&quot;&gt;Centralised Execution&lt;/font&gt;" style="text;html=1;align=center;verticalAlign=middle;whiteSpace=wrap;rounded=0;fontSize=30;fontStyle=1" parent="1" vertex="1">
          <mxGeometry x="365" y="210" width="220" height="60" as="geometry" />
        </mxCell>
        <mxCell id="oe5NFMV8teDHn_59ZeEc-7" value="Independent Learning" style="rounded=1;whiteSpace=wrap;html=1;fontSize=18;strokeWidth=3;fillColor=#dae8fc;strokeColor=#6c8ebf;" parent="1" vertex="1">
          <mxGeometry x="145" y="265" width="140" height="60" as="geometry" />
        </mxCell>
        <mxCell id="oe5NFMV8teDHn_59ZeEc-9" value="Centralised Training Decentralised Execution" style="rounded=1;whiteSpace=wrap;html=1;fontSize=18;strokeWidth=3;fillColor=#ffe6cc;strokeColor=#d79b00;" parent="1" vertex="1">
          <mxGeometry x="115" y="340" width="200" height="60" as="geometry" />
        </mxCell>
        <mxCell id="oe5NFMV8teDHn_59ZeEc-10" value="Central Learning" style="rounded=1;whiteSpace=wrap;html=1;fontSize=18;strokeWidth=3;fillColor=#ffe6cc;strokeColor=#d79b00;" parent="1" vertex="1">
          <mxGeometry x="397.5" y="345" width="175" height="50" as="geometry" />
        </mxCell>
        <mxCell id="oe5NFMV8teDHn_59ZeEc-11" value="Centralised Training" style="rounded=1;whiteSpace=wrap;html=1;fontSize=18;strokeWidth=3;fillColor=#ffe6cc;strokeColor=#d79b00;" parent="1" vertex="1">
          <mxGeometry x="-140" y="345" width="190" height="50" as="geometry" />
        </mxCell>
        <mxCell id="oe5NFMV8teDHn_59ZeEc-12" value="Decentralised Training" style="rounded=1;whiteSpace=wrap;html=1;fontSize=18;strokeWidth=3;fillColor=#dae8fc;strokeColor=#6c8ebf;" parent="1" vertex="1">
          <mxGeometry x="-140" y="270" width="190" height="50" as="geometry" />
        </mxCell>
      </root>
    </mxGraphModel>
  </diagram>
</mxfile>
